<svg height="50" version="1.1" width="50" xmlns="http://www.w3.org/2000/svg"
     style="overflow: hidden; position: relative;" _mstVisible="2">
    <g style="-webkit-tap-highlight-color: rgba(0, 0, 0, 0);" _mstVisible="3">
        <desc _mstHash="484315" _mstTextHash="496717" _mstVisible="4">Created with Raphaël 2.0.0</desc>
        <defs _mstVisible="4"></defs>
        <path fill="#ffffff" stroke="#3b4449"
              d="M50,50C50,36.19373,38.806233,25,25,25C11.193742,25,0,36.19373,0,50C0,63.80632,11.193742,75,25,75C38.806233,75,50,63.80632,50,50"
              stroke-width="2" stroke-linecap="round" stroke-miterlimit="6" transform="matrix(0.46,0,0,0.46,13.5,2)"
              style="stroke-linecap: round; stroke-miterlimit: 6;" _mstVisible="4"></path>
        <path fill="none" stroke="#3b4449" d="M25,0.00002L25,25" stroke-width="2" stroke-linecap="round"
              stroke-miterlimit="6" transform="matrix(0.46,0,0,0.46,13.5,2)"
              style="stroke-linecap: round; stroke-miterlimit: 6;" _mstVisible="4"></path>
        <path fill="none" stroke="#3b4449" d="M25,100L25,75" stroke-width="2" stroke-linecap="round"
              stroke-miterlimit="6" transform="matrix(0.46,0,0,0.46,13.5,2)"
              style="stroke-linecap: round; stroke-miterlimit: 6;" _mstVisible="4"></path>
        <path fill="none" stroke="#3b4449" d="M25,56.49892L25,35.05936" stroke-width="1.49310875" stroke-linecap="round"
              stroke-miterlimit="6" transform="matrix(0.46,0,0,0.46,13.5,2)"
              style="stroke-linecap: round; stroke-miterlimit: 6;" _mstVisible="4"></path>
        <path fill="#3b4449" stroke="none"
              d="M20.099545,48.53562C23.162335,54.66122,23.162335,56.49892,25,65.68722C26.837665,56.49892,26.837665,54.66122,29.900455,48.53562C26.225105,49.76072,23.774885,49.76072,20.099545,48.53562"
              transform="matrix(0.46,0,0,0.46,13.5,2)" style="" _mstVisible="4"></path>
    </g>
</svg>