<svg height="50" version="1.1" width="50" xmlns="http://www.w3.org/2000/svg" style="overflow: hidden; position: relative;" _mstVisible="2"><g style="-webkit-tap-highlight-color: rgba(0, 0, 0, 0);" _mstVisible="3"><desc _mstHash="483886" _mstTextHash="496717" _mstVisible="4">Created with Raphaël 2.0.0</desc><defs _mstVisible="4"></defs><path fill="none" stroke="#3b4449" d="M44.433523,32.078C44.433523,34.5266,42.448567000000004,36.5116,40,36.5116C37.551433,36.5116,35.566478000000004,34.5266,35.566478000000004,32.078C35.566478000000004,29.629500000000004,37.551433,27.6445,40,27.6445C42.448567,27.6445,44.433523,29.6295,44.433523,32.078Z" stroke-width="1.3" stroke-miterlimit="4" transform="matrix(1,0,0,1,0,0.3252)" style="stroke-miterlimit: 4;" _mstVisible="4"></path><path fill="none" stroke="#3b4449" d="M14.433522,32.078C14.433522,34.5266,12.448567,36.5116,10,36.5116C7.5514332,36.5116,5.5664775,34.5266,5.5664775,32.078C5.5664775,29.629500000000004,7.5514332,27.6445,10,27.6445C12.448567,27.6445,14.433522,29.6295,14.433522,32.078Z" stroke-width="1.3" stroke-miterlimit="4" transform="matrix(1,0,0,1,0,0.3252)" style="stroke-miterlimit: 4;" _mstVisible="4"></path><path fill="none" stroke="#3b4449" d="M14.6,32.0781L35.4,32.0781" stroke-width="1.3" stroke-linecap="round" stroke-miterlimit="4" transform="matrix(1,0,0,1,0,0.3252)" style="stroke-linecap: round; stroke-miterlimit: 4;" _mstVisible="4"></path><path fill="#3b4449" stroke="none" d="M18.449218,22.3599L17.770018999999998,22.3599L15.738768999999998,16.4947L13.764647999999998,22.359900000000003L13.085448999999997,22.359900000000003L10.032225999999998,12.933700000000004L11.752440999999997,12.933700000000004L13.498046999999998,18.545L15.383299999999998,12.933700000000002L16.106932999999998,12.933700000000002L17.998534999999997,18.545L19.737792999999996,12.933700000000002L21.458007999999996,12.933700000000002Z" transform="matrix(1,0,0,1,0,0.3252)" style="" _mstVisible="4"></path><path fill="#3b4449" stroke="none" d="M22.486328,22.233L22.486328,12.9337L24.136718000000002,12.9337L24.136718000000002,22.233Z" transform="matrix(1,0,0,1,0,0.3252)" style="" _mstVisible="4"></path><path fill="#3b4449" stroke="none" d="M31.328613,22.233L28.846679,18.3926C28.597001000000002,18.3926,28.247881000000003,18.373600000000003,27.799316,18.3486L27.799316,22.2334L26.085449,22.2334L26.085449,12.934099999999999C26.178549,12.934099999999999,26.536131,12.918099999999999,27.158203,12.886099999999999C27.780271,12.854099999999999,28.281735,12.838099999999999,28.662597,12.838099999999999C31.02392,12.838099999999999,32.204582,13.752199999999998,32.20459,15.5803C32.204582,16.130499999999998,32.041659,16.631899999999998,31.715820000000004,17.084699999999998C31.389967000000006,17.537499999999998,30.979486000000005,17.857,30.484375000000004,18.0432L33.232910000000004,22.232699999999998ZM27.799316,14.368200000000002L27.799316,16.951700000000002C28.104001,16.9767,28.336748,16.989700000000003,28.497558,16.989700000000003C29.187333000000002,16.989700000000003,29.691971000000002,16.8927,30.011474,16.6977C30.330968,16.5031,30.490717,16.1243,30.490721999999998,15.5615C30.490716999999997,15.1045,30.319329999999997,14.785,29.976561999999998,14.603C29.633784,14.421,29.094233999999997,14.3301,28.357909999999997,14.33C28.180171999999995,14.3301,27.993974999999995,14.343,27.799315999999997,14.368Z" transform="matrix(1,0,0,1,0,0.3252)" style="" _mstVisible="4"></path><path fill="#3b4449" stroke="none" d="M35.683105,14.4L35.683105,16.5772L38.755371,16.5772L38.755371,17.98L35.683105,17.98L35.683105,20.7667L39.897949,20.7667L39.897949,22.233L34.032714999999996,22.233L34.032714999999996,12.9337L39.967772999999994,12.9337L39.967772999999994,14.4Z" transform="matrix(1,0,0,1,0,0.3252)" style="" _mstVisible="4"></path></g></svg>