<svg height="50" version="1.1" width="50" xmlns="http://www.w3.org/2000/svg" style="overflow: hidden; position: relative;" _mstVisible="2"><g style="-webkit-tap-highlight-color: rgba(0, 0, 0, 0);" _mstVisible="3"><desc _mstHash="483743" _mstTextHash="496717" _mstVisible="4">Created with Raphaël 2.0.0</desc><defs _mstVisible="4"></defs><path fill="#3b4449" stroke="#3b4449" d="M11.346641,35.206214L5.7781746,46.166369L28.052038,35.206214Z" stroke-width="1px" stroke-linecap="butt" stroke-linejoin="round" transform="matrix(1,0,0,1,0,0.517)" style="stroke-linecap: butt; stroke-linejoin: round;" _mstVisible="4"></path><path fill="#ffffff" stroke="#3b4449" d="M11.433244,2.7996502L38.566756,2.7996502C42.998756,2.7996502,46.566755,6.3676502,46.566755,10.79965L46.566755,27.20035C46.566755,31.632350000000002,42.998756,35.20035,38.566756,35.20035L11.433243999999998,35.20035C7.001244299999998,35.20035,3.4332446999999986,31.63235,3.4332446999999986,27.20035L3.4332446999999986,10.79965C3.4332446999999986,6.3676502,7.001244299999998,2.7996501999999994,11.433243999999998,2.7996501999999994Z" stroke-width="2" stroke-linecap="round" stroke-miterlimit="4" transform="matrix(1,0,0,1,0,0.517)" style="stroke-linecap: round; stroke-miterlimit: 4;" _mstVisible="4"></path><path fill="#3b4449" stroke="none" d="M14.827881,17.455742L10.314696999999999,11.571465L10.314696999999999,17.335136L8.7277832,17.335136L8.7277832,8.029472399999998L9.5212402,8.029472399999998L13.913818,13.640799999999999L13.913818,8.0294724L15.500732,8.0294724L15.500732,17.455742Z" transform="matrix(1,0,0,1,0,0.517)" style="" _mstVisible="4"></path><path fill="#3b4449" stroke="none" d="M22.838623,17.328789L22.159423999999998,15.443535L18.9729,15.443535L18.325439,17.328789L16.490966999999998,17.328789L20.197998,7.9025192L20.921630999999998,7.9025192L24.6604,17.328789ZM20.559814,10.746269000000002L19.442626999999998,14.180351000000002L21.677001999999998,14.180351000000002Z" transform="matrix(1,0,0,1,0,0.517)" style="" _mstVisible="4"></path><path fill="#3b4449" stroke="none" d="M34.308838,17.335136L32.709229,17.335136L31.744385,12.320487999999997L29.871826000000002,17.455741999999997L29.281494000000002,17.455741999999997L27.408936,12.320487999999997L26.406006,17.335136L24.812744000000002,17.335136L26.685303,8.029472399999998L27.561279000000003,8.029472399999998L29.573486000000003,14.294608999999998L31.54126,8.029472399999998L32.410889000000005,8.029472399999998Z" transform="matrix(1,0,0,1,0,0.517)" style="" _mstVisible="4"></path><path fill="#3b4449" stroke="none" d="M36.987549,9.4957809L36.987549,11.673027L40.059814,11.673027L40.059814,13.075859L36.987549,13.075859L36.987549,15.86248L41.202393,15.86248L41.202393,17.328789L35.337158,17.328789L35.337158,8.029472400000001L41.272217000000005,8.029472400000001L41.272217000000005,9.495780900000002Z" transform="matrix(1,0,0,1,0,0.517)" style="" _mstVisible="4"></path><path fill="#3b4449" stroke="none" d="M15.043701,30.065742L10.530518,24.181465L10.530518,29.945137L8.9436035,29.945137L8.9436035,20.639473L9.7370605,20.639473L14.129639000000001,26.250801L14.129639000000001,20.639473L15.716553000000001,20.639473L15.716553000000001,30.065742Z" transform="matrix(1,0,0,1,0,0.517)" style="" _mstVisible="4"></path><path fill="#3b4449" stroke="none" d="M17.182861,25.209785C17.182861,23.885247,17.545735,22.764887,18.271483999999997,21.848701C18.997230999999996,20.932532,19.967363,20.474442999999997,21.181884999999998,20.474434C22.519118999999996,20.474442999999997,23.541089999999997,20.889156,24.247802999999998,21.718574C24.954499999999996,22.548009,25.307852999999998,23.711745,25.307861,25.209785C25.307852999999998,26.707835,24.938630999999997,27.896962000000002,24.200195,28.777168C23.461745,29.657377,22.413324,30.09748,21.054932,30.097481C19.806556,30.097479999999997,18.849119,29.661607999999998,18.182617,28.789862999999997C17.516112,27.918120999999996,17.182861,26.724762,17.182861,25.209784999999997ZM18.896729,25.209785C18.896726,26.297354,19.080808,27.139476000000002,19.448975,27.736152C19.817136,28.332834000000002,20.352454,28.631173,21.054932,28.631172C21.880122,28.631173,22.509597,28.339181,22.943359,27.755195C23.377109,27.171214,23.593987000000002,26.322745,23.593994000000002,25.209785C23.593987000000002,23.03043,22.789952000000003,21.94075,21.181885,21.940742C20.445553,21.94075,19.880612000000003,22.235916,19.487061,22.82624C19.093503000000002,23.416579,18.896726,24.211092999999998,18.896729,25.209784999999997Z" transform="matrix(1,0,0,1,0,0.517)" style="" _mstVisible="4"></path><path fill="#3b4449" stroke="none" d="M28.830811,29.938789L26.767822000000002,29.938789L26.767822000000002,20.64582C28.083901,20.59928,28.911211,20.57601,29.249756,20.576C30.603918,20.57601,31.677729000000003,20.972738,32.471191000000005,21.766186C33.264641000000005,22.55965,33.66136900000001,23.612302,33.661377,24.924145000000003C33.661369,28.267245000000003,32.051182000000004,29.938793000000004,28.830811,29.938793000000004ZM28.418213,22.086738L28.418213,28.434395000000002C28.684812,28.459785000000004,28.972572000000003,28.472485000000002,29.281494000000002,28.472485000000002C30.115149000000002,28.472486000000004,30.767899000000003,28.169915000000003,31.239746000000004,27.564770000000003C31.711583000000005,26.959629000000003,31.947504000000002,26.113276000000003,31.947510000000005,25.025707000000004C31.947504000000006,23.036782000000002,31.022863000000005,22.042317000000004,29.173584000000005,22.042309000000003C28.995846000000004,22.042317000000004,28.744056000000004,22.057129000000003,28.418213000000005,22.086739Z" transform="matrix(1,0,0,1,0,0.517)" style="" _mstVisible="4"></path><path fill="#3b4449" stroke="none" d="M36.771729,22.105781L36.771729,24.283027L39.843994,24.283027L39.843994,25.685859L36.771729,25.685859L36.771729,28.472481000000002L40.986572,28.472481000000002L40.986572,29.938789000000003L35.121338,29.938789000000003L35.121338,20.639473000000002L41.056396,20.639473000000002L41.056396,22.105781000000004Z" transform="matrix(1,0,0,1,0,0.517)" style="" _mstVisible="4"></path></g></svg>